<svg width="630" height="595" viewBox="0 0 630 595" fill="none" xmlns="http://www.w3.org/2000/svg">
<rect opacity="0.69" width="630" height="595" rx="297.5" fill="#DDB7C9"/>
<path fill-rule="evenodd" clip-rule="evenodd" d="M314.629 469.948V470H487.259V297.004C487.259 391.14 410.343 467.716 314.629 469.948ZM314.629 124V124.052C410.343 126.284 487.259 202.86 487.259 297.004V124H314.629ZM315.048 470H142V124H315.004L315.048 470Z" fill="#191718"/>
<path d="M166.236 418.803H171.468L186.289 457.365H181.607L178.12 448.219H159.523L156.036 457.365H151.371L166.236 418.803ZM176.594 444.139L169.026 423.982H168.695L161.101 444.139H176.594Z" fill="white"/>
<path d="M189.082 438.082C189.082 426.747 197.565 418.09 209.022 418.09C220.478 418.09 228.961 426.808 228.961 438.082C229.022 443.158 227.156 448.068 223.739 451.822L228.264 457.394H223.032L220.67 454.525C217.218 456.894 213.121 458.145 208.934 458.108C197.469 458.082 189.082 449.538 189.082 438.082ZM217.95 451.16L209.632 440.968H214.915L220.879 448.335C223.151 445.408 224.356 441.795 224.297 438.09C224.297 429.058 217.793 422.284 208.978 422.284C200.163 422.284 193.668 429.058 193.668 438.09C193.668 447.123 200.163 453.897 208.978 453.897C212.171 453.948 215.297 452.983 217.906 451.142L217.95 451.16Z" fill="white"/>
<path d="M237.172 418.803H248.628C260.834 418.803 267.957 426.841 267.957 438.08C267.957 450.033 260.852 457.365 248.628 457.365H237.172V418.803ZM248.628 453.398C257.774 453.398 263.389 447.775 263.389 438.08C263.389 428.777 257.879 422.822 248.628 422.822H241.653V453.398H248.628Z" fill="white"/>
<path d="M285.58 418.803H290.811L305.633 457.365H300.951L297.464 448.219H278.884L275.397 457.365H270.715L285.58 418.803ZM295.938 444.139L288.335 423.982H288.004L280.401 444.139H295.938Z" fill="white"/>
</svg>
