<svg width="466" height="139" viewBox="0 0 466 139" fill="none" xmlns="http://www.w3.org/2000/svg">
<path fill-rule="evenodd" clip-rule="evenodd" d="M176.358 1.44629H118.852V58.8488C118.852 27.151 144.59 1.44629 176.358 1.44629Z" fill="#40552A"/>
<path fill-rule="evenodd" clip-rule="evenodd" d="M118.852 58.8486V116.242H176.358C144.59 116.242 118.852 90.5464 118.852 58.8486Z" fill="#40552A"/>
<path fill-rule="evenodd" clip-rule="evenodd" d="M176.359 1.44629C208.136 1.44629 233.88 27.151 233.88 58.8488V1.44629H176.359Z" fill="#40552A"/>
<path fill-rule="evenodd" clip-rule="evenodd" d="M176.359 116.242H233.88V58.8486C233.88 90.5464 208.136 116.242 176.359 116.242Z" fill="#40552A"/>
<path fill-rule="evenodd" clip-rule="evenodd" d="M118.921 58.7475H118.941V1.44617H61.4204C92.7216 1.44617 118.179 26.9774 118.921 58.7475ZM3.90234 58.7475H3.91974C4.66183 26.9774 30.122 1.44617 61.4204 1.44617H3.90234V58.7475ZM118.941 58.6086V116H3.90234V58.6086H118.941Z" fill="#EDB81E"/>
<path fill-rule="evenodd" clip-rule="evenodd" d="M291.258 116.222V116.243H348.674V58.8487C348.674 90.0808 323.098 115.482 291.258 116.222ZM291.258 1.45774V1.47509C323.098 2.21554 348.674 27.6195 348.674 58.8487V1.44617L291.258 1.45774ZM291.397 116.243H233.879V1.44617H291.397V116.243Z" fill="#E5E5E5"/>
<path fill-rule="evenodd" clip-rule="evenodd" d="M463.939 58.869H463.956V1.44617H406.317C437.682 1.44617 463.194 27.0323 463.939 58.869ZM348.674 58.869H348.694C349.436 27.0323 374.949 1.44617 406.317 1.44617H348.674V58.869ZM463.956 58.7272V116.243H348.674V58.7157L463.956 58.7272Z" fill="#DDB7C9"/>
<path d="M10.9865 122.638H12.9143L18.3727 136.81H16.6334L15.3637 133.447H8.51097L7.24709 136.81H5.50781L10.9865 122.638ZM14.8014 131.951L12.0011 124.538H11.8852L9.08493 131.948L14.8014 131.951Z" fill="white"/>
<path d="M19.9141 132.596H21.5577C21.5577 134.239 22.8969 135.552 25.0362 135.552C26.9031 135.552 28.2423 134.641 28.2423 133.163C28.2423 128.729 20.3895 131.827 20.3895 126.158C20.3895 124.133 22.0737 122.372 24.9348 122.372C27.0857 122.372 29.6019 123.546 29.6019 126.482H27.9293C27.9293 124.862 26.8538 123.879 24.9261 123.879C22.9172 123.879 22.0447 124.992 22.0447 126.166C22.0447 130.034 29.9178 127.341 29.9178 133.071C29.9178 135.298 28.0916 137.082 24.9899 137.082C22.1664 137.074 19.9141 135.228 19.9141 132.596Z" fill="white"/>
<path d="M32.0703 132.596H33.7139C33.7139 134.239 35.0532 135.552 37.1925 135.552C39.0593 135.552 40.3986 134.641 40.3986 133.163C40.3986 128.729 32.5457 131.827 32.5457 126.158C32.5457 124.133 34.2299 122.372 37.091 122.372C39.242 122.372 41.7581 123.546 41.7581 126.482H40.0739C40.0739 124.862 38.9985 123.879 37.0707 123.879C35.0619 123.879 34.1893 124.992 34.1893 126.166C34.1893 130.034 42.0625 127.341 42.0625 133.071C42.0625 135.298 40.2362 137.082 37.1345 137.082C34.3227 137.074 32.0703 135.228 32.0703 132.596Z" fill="white"/>
<path d="M45.3407 122.638H53.4371V124.136H46.9843V128.853H52.5443V130.331H46.9843V135.335H53.6516V136.81H45.332L45.3407 122.638Z" fill="white"/>
<path d="M56.9267 122.638H58.7327L64.2404 135.011H64.3535L69.4467 122.638H71.2526V136.81H69.6699V126.239H69.5481L65.2231 136.81H63.3563L58.6283 126.239H58.5066V136.81H56.9238L56.9267 122.638Z" fill="white"/>
<path d="M75.5332 122.638H80.1191C82.8179 122.638 84.4209 124.197 84.4209 126.262C84.4421 126.89 84.2835 127.51 83.9636 128.051C83.6437 128.592 83.1759 129.031 82.615 129.316V129.438C83.3045 129.677 83.899 130.131 84.3116 130.732C84.7242 131.333 84.9331 132.05 84.9079 132.778C84.9079 135.332 82.9194 136.81 80.5249 136.81H75.5332V122.638ZM80.0582 128.772C81.6613 128.772 82.7367 127.821 82.7367 126.383C82.7367 124.946 81.641 124.095 80.1278 124.095H77.1565V128.77L80.0582 128.772ZM80.2409 135.373C81.9251 135.373 83.2034 134.566 83.2034 132.741C83.2034 130.916 81.7019 130.138 80.0582 130.138H77.1594V135.364L80.2409 135.373Z" fill="white"/>
<path d="M88.1758 122.638H89.8194V135.335H95.9504V136.81H88.1758V122.638Z" fill="white"/>
<path d="M99.2148 122.638H100.858V136.81H99.2148V122.638Z" fill="white"/>
<path d="M105.137 122.638H106.824L114.251 133.956H114.372V122.638H115.996V136.81H114.256L106.911 125.49H106.789V136.81H105.143L105.137 122.638Z" fill="white"/>
<path d="M119.26 129.721C119.26 125.55 122.344 122.372 126.568 122.372C129.835 122.372 132.31 124.295 133.235 126.968H131.409C130.658 125.125 128.953 123.91 126.559 123.91C123.208 123.91 120.956 126.401 120.956 129.721C120.956 133.042 123.251 135.535 126.6 135.535C129.498 135.535 131.774 133.629 131.875 130.794H126.121V129.348H133.731C133.751 134.47 130.423 137.065 126.588 137.065C122.364 137.074 119.26 133.932 119.26 129.721Z" fill="white"/>
<path d="M141.885 129.721C141.885 125.55 145.01 122.372 149.233 122.372C153.457 122.372 156.579 125.591 156.579 129.721C156.604 131.583 155.922 133.384 154.671 134.765L156.335 136.81H154.408L153.538 135.758C152.267 136.628 150.758 137.088 149.216 137.074C144.989 137.074 141.885 133.932 141.885 129.721ZM152.52 134.52L149.456 130.774H151.404L153.616 133.487C154.452 132.413 154.896 131.087 154.874 129.727C154.874 126.406 152.48 123.916 149.233 123.916C145.987 123.916 143.589 126.406 143.589 129.727C143.589 133.047 145.984 135.541 149.233 135.541C150.41 135.557 151.561 135.199 152.52 134.52Z" fill="white"/>
<path d="M159.641 131.726V122.638H161.284V131.708C161.284 134.057 162.542 135.555 164.937 135.555C167.331 135.555 168.612 134.057 168.612 131.688V122.638H170.236V131.708C170.236 134.907 168.308 137.077 164.937 137.077C161.565 137.077 159.641 134.948 159.641 131.726Z" fill="white"/>
<path d="M174.31 122.638H182.407V124.136H175.957V128.853H181.517V130.331H175.957V135.335H182.624V136.81H174.305L174.31 122.638Z" fill="white"/>
<path d="M185.898 122.638H193.995V124.136H187.554V128.853H193.114V130.331H187.554V135.335H194.221V136.81H185.901L185.898 122.638Z" fill="white"/>
<path d="M197.484 122.638H202.293C205.192 122.638 206.932 124.338 206.932 126.829C206.95 127.739 206.671 128.631 206.136 129.368C205.602 130.106 204.841 130.651 203.969 130.919L207.285 136.81H205.378L202.233 131.078H199.128V136.81H197.484V122.638ZM202.293 129.623C203.957 129.623 205.215 128.691 205.215 126.829C205.215 125.331 204.201 124.095 202.192 124.095H199.128V129.623H202.293Z" fill="white"/>
<path d="M216.355 122.638H220.576C225.081 122.638 227.698 125.594 227.698 129.724C227.698 134.121 225.09 136.813 220.576 136.813H216.355V122.638ZM220.576 135.364C223.945 135.364 226.014 133.299 226.014 129.736C226.014 126.314 223.985 124.127 220.576 124.127H217.99V135.364H220.576Z" fill="white"/>
<path d="M230.559 122.638H232.194V136.81H230.551L230.559 122.638Z" fill="white"/>
<path d="M235.383 132.596H237.026C237.026 134.239 238.366 135.552 240.505 135.552C242.372 135.552 243.711 134.641 243.711 133.163C243.711 128.729 235.858 131.827 235.858 126.158C235.858 124.133 237.542 122.372 240.404 122.372C242.554 122.372 245.071 123.546 245.071 126.482H243.384C243.384 124.862 242.308 123.879 240.38 123.879C238.371 123.879 237.499 124.992 237.499 126.166C237.499 130.034 245.372 127.341 245.372 133.071C245.372 135.298 243.546 137.082 240.444 137.082C237.621 137.074 235.383 135.228 235.383 132.596Z" fill="white"/>
<path d="M248.639 122.638H253.732C256.309 122.638 258.08 124.318 258.08 126.89C258.08 129.461 256.234 131.202 253.732 131.202H250.282V136.81H248.639V122.638ZM253.59 129.744C255.294 129.744 256.39 128.53 256.39 126.89C256.39 125.25 255.294 124.095 253.59 124.095H250.282V129.744H253.59Z" fill="white"/>
<path d="M261.139 122.638H262.782V135.335H268.91V136.81H261.139V122.638Z" fill="white"/>
<path d="M276.033 122.638H277.961L283.42 136.81H281.68L280.402 133.447H273.558L272.279 136.81H270.555L276.033 122.638ZM279.848 131.951L277.048 124.541H276.926L274.126 131.951H279.848Z" fill="white"/>
<path d="M284.662 129.721C284.662 125.55 287.767 122.372 291.967 122.372C295.234 122.372 297.71 124.295 298.634 127.17H296.869C296.118 125.024 294.15 123.91 291.958 123.91C288.813 123.91 286.358 126.401 286.358 129.721C286.358 133.042 288.813 135.535 291.958 135.535C294.15 135.535 296.098 134.442 296.808 132.272H298.634C297.742 135.211 295.205 137.074 291.938 137.074C287.741 137.074 284.662 133.932 284.662 129.721Z" fill="white"/>
<path d="M301.903 122.638H310V124.136H303.547V128.853H309.107V130.331H303.547V135.335H310.214V136.81H301.895L301.903 122.638Z" fill="white"/>
<path d="M313.492 122.638H315.298L320.806 135.011H320.928L326.012 122.638H327.818V136.81H326.235V126.239H326.116L321.791 136.81H319.925L315.197 126.239H315.075V136.81H313.492V122.638Z" fill="white"/>
<path d="M332.099 122.638H340.195V124.136H333.742V128.853H339.302V130.331H333.742V135.335H340.409V136.81H332.09L332.099 122.638Z" fill="white"/>
<path d="M343.685 122.638H345.37L352.785 133.953H352.907V122.638H354.53V136.81H352.791L345.445 125.49H345.323V136.81H343.68L343.685 122.638Z" fill="white"/>
<path d="M361.745 124.133H357.396V122.638H367.725V124.136H363.377V136.81H361.733L361.745 124.133Z" fill="white"/>
<path d="M380.353 122.638H382.28L387.739 136.81H386.014L384.736 133.447H377.877L376.599 136.81H374.859L380.353 122.638ZM384.167 131.951L381.367 124.541H381.245L378.445 131.951H384.167Z" fill="white"/>
<path d="M390.396 122.638H395.206C398.104 122.638 399.844 124.338 399.844 126.829C399.862 127.739 399.583 128.631 399.048 129.368C398.514 130.106 397.753 130.651 396.881 130.919L400.197 136.81H398.296L395.151 131.078H392.046V136.81H390.402L390.396 122.638ZM395.206 129.623C396.87 129.623 398.128 128.691 398.128 126.829C398.128 125.331 397.113 124.095 395.104 124.095H392.04V129.623H395.206Z" fill="white"/>
<path d="M402.354 129.721C402.354 125.55 405.461 122.372 409.661 122.372C412.928 122.372 415.404 124.295 416.329 127.17H414.563C413.812 125.024 411.844 123.91 409.653 123.91C406.508 123.91 404.049 126.401 404.049 129.721C404.049 133.042 406.508 135.535 409.653 135.535C411.844 135.535 413.792 134.442 414.502 132.272H416.329C415.436 135.211 412.899 137.074 409.632 137.074C405.432 137.074 402.354 133.932 402.354 129.721Z" fill="white"/>
<path d="M419.594 122.638H421.237V128.853H428.774V122.638H430.418V136.81H428.774V130.349H421.237V136.81H419.594V122.638Z" fill="white"/>
<path d="M434.711 122.638H436.355V136.81H434.711V122.638Z" fill="white"/>
<path d="M439.012 122.638H440.777L445.125 135.011H445.247L449.729 122.638H451.575L446.195 136.81H444.267L439.012 122.638Z" fill="white"/>
<path d="M454.242 122.638H462.341V124.136H455.886V128.853H461.449V130.331H455.886V135.335H462.553V136.81H454.242V122.638Z" fill="white"/>
</svg>
